<?xml version="1.0" encoding="utf-8"?>
<!-- Generator: Adobe Illustrator 17.0.0, SVG Export Plug-In . SVG Version: 6.00 Build 0)  -->
<!DOCTYPE svg PUBLIC "-//W3C//DTD SVG 1.1//EN" "http://www.w3.org/Graphics/SVG/1.1/DTD/svg11.dtd">
<svg version="1.1" id="Layer_1" xmlns="http://www.w3.org/2000/svg" xmlns:xlink="http://www.w3.org/1999/xlink" x="0px" y="0px"
	 width="372.744px" height="144.482px" viewBox="51.414 136.551 372.744 144.482"
	 enable-background="new 51.414 136.551 372.744 144.482" xml:space="preserve">
<g>
	<path fill="#FFFFFF" d="M66.908,262.689c0,3.852,2.777,5.78,8.334,5.78c5.555,0,8.334-1.731,8.334-5.193
		c0-1.843-0.95-3.35-2.848-4.523c-1.899-1.172-4.203-2.149-6.91-2.931c-2.709-0.781-5.416-1.688-8.125-2.722
		c-2.709-1.032-5.012-2.651-6.91-4.858c-1.898-2.205-2.847-4.955-2.847-8.25c0-14.015,9.017-21.023,27.053-21.023
		c6.588,0,11.571,1.243,14.95,3.727c3.378,2.485,5.067,5.933,5.067,10.344c0,1.62-0.209,3.17-0.628,4.649
		c-0.419,1.48-0.851,2.527-1.298,3.141l-0.67,1.004H85.585c1.228-1.283,1.843-2.902,1.843-4.858c0-3.629-2.374-5.444-7.119-5.444
		c-5.976,0-8.962,1.899-8.962,5.695c0,1.899,0.949,3.407,2.848,4.523c1.898,1.117,4.201,1.997,6.91,2.639
		c2.707,0.642,5.429,1.438,8.166,2.387c2.735,0.95,5.052,2.527,6.952,4.733c1.898,2.206,2.848,5.067,2.848,8.585
		c0,7.091-2.123,12.354-6.366,15.788c-4.244,3.434-10.777,5.151-19.598,5.151c-8.824,0-14.854-1.563-18.092-4.691
		c-2.401-2.345-3.601-5.582-3.601-9.715c0-1.563,0.168-3.267,0.502-5.11l0.252-1.34h15.076l-0.168,1.005
		C66.963,261.74,66.908,262.242,66.908,262.689z"/>
	<path fill="#FFFFFF" d="M133.494,261.516h-9.967l-3.266,18.343h-15.076l10.636-60.305h25.546c6.31,0,10.805,1.453,13.485,4.355
		c1.954,2.234,2.931,5.082,2.931,8.543c0,1.172-0.113,2.401-0.335,3.685l-1.675,9.464c-0.838,4.636-3.295,8.447-7.37,11.433
		C144.326,260.023,139.357,261.516,133.494,261.516z M136.09,232.62h-7.538l-2.764,15.83h7.455c4.577,0,7.231-2.037,7.957-6.114
		l0.586-3.435c0.111-0.502,0.168-1.172,0.168-2.01s-0.419-1.759-1.256-2.764C139.859,233.123,138.323,232.62,136.09,232.62z"/>
	<path fill="#FFFFFF" d="M187.265,279.859l0.502-13.15H173.78l-4.104,13.15h-15.997l21.525-60.305h27.64l0.335,60.305H187.265z
		 M183.831,234.212l-6.617,21.274h10.972l0.922-21.274H183.831z"/>
	<path fill="#FFFFFF" d="M265.995,232.62H245.39l-8.291,47.239h-15.16l8.292-47.239h-20.688l2.345-13.066h56.452L265.995,232.62z"/>
	<path fill="#FFFFFF" d="M322.396,232.62H301.79l-8.291,47.239h-15.161l8.292-47.239h-20.687l2.345-13.066h56.451L322.396,232.62z"
		/>
	<path fill="#FFFFFF" d="M363.016,279.859h-42.045l10.636-60.305h42.047l-2.346,13.066h-26.969l-1.927,11.307h22.279l-2.344,13.066
		h-22.279l-1.675,9.8h26.969L363.016,279.859z"/>
	<path fill="#FFFFFF" d="M407.574,219.555c6.365,0,10.888,1.396,13.569,4.188c2.009,2.123,3.015,4.803,3.015,8.04
		c0,1.118-0.113,2.29-0.335,3.518l-1.173,6.533c-0.669,3.631-1.829,6.562-3.476,8.794c-1.647,2.235-3.475,3.825-5.485,4.774
		l7.621,24.457h-16.918l-7.036-22.531h-5.194l-3.434,22.531h-16.081l10.636-60.305L407.574,219.555L407.574,219.555z
		 M402.298,232.62h-6.282l-2.179,14.574h5.863c2.959,0,5.081-0.712,6.367-2.136c1.283-1.424,1.925-3.309,1.925-5.654
		C407.992,234.882,406.093,232.62,402.298,232.62z"/>
</g>
<g>
	<circle fill="#FFFFFF" cx="200.694" cy="192.439" r="6.072"/>
	<path fill="#FFFFFF" d="M259.249,136.551h-27.56c-13.26,0-24.011,10.752-24.011,24.011c0,3.572,0.803,6.951,2.201,9.995
		c-2.282,1.58-3.781,4.213-3.781,7.197c0,4.83,3.915,8.745,8.745,8.745c3.043,0,5.722-1.557,7.287-3.915
		c2.929,1.272,6.161,1.989,9.559,1.989h27.56c13.26,0,24.011-10.752,24.011-24.011C283.259,147.303,272.507,136.551,259.249,136.551
		z M226.755,167.13c-3.626,0-6.567-2.941-6.567-6.569s2.941-6.569,6.567-6.569c3.629,0,6.57,2.941,6.57,6.569
		C233.325,164.189,230.384,167.13,226.755,167.13z M245.467,167.13c-3.626,0-6.567-2.941-6.567-6.569s2.941-6.569,6.567-6.569
		c3.629,0,6.57,2.941,6.57,6.569C252.037,164.189,249.098,167.13,245.467,167.13z M264.181,167.13c-3.626,0-6.567-2.941-6.567-6.569
		s2.941-6.569,6.567-6.569c3.629,0,6.57,2.941,6.57,6.569C270.751,164.189,267.811,167.13,264.181,167.13z"/>
</g>
</svg>
