<?xml version="1.0" encoding="utf-8"?>
<!-- Generator: Adobe Illustrator 17.0.0, SVG Export Plug-In . SVG Version: 6.00 Build 0)  -->
<!DOCTYPE svg PUBLIC "-//W3C//DTD SVG 1.1//EN" "http://www.w3.org/Graphics/SVG/1.1/DTD/svg11.dtd">
<svg version="1.1" id="Layer_1" xmlns="http://www.w3.org/2000/svg" xmlns:xlink="http://www.w3.org/1999/xlink" x="0px" y="0px"
	 width="150px" height="150px" viewBox="0 0 150 150" enable-background="new 0 0 150 150" xml:space="preserve">
<path fill="#FFFFFF" d="M140.005,4.437c-0.432-1.992-2.05-3.506-4.065-3.81c-2.021-0.314-4.009,0.674-5.003,2.446
	c-0.095,0.17-9.781,17.057-25.949,17.057C88.96,20.131,79.3,3.257,79.209,3.1c-0.863-1.56-2.508-2.528-4.29-2.528
	c-2.668,0-3.944,1.772-5.291,3.646c-3.133,4.353-11.449,15.913-24.775,15.913C28.825,20.131,19.168,3.257,19.08,3.1
	c-0.991-1.789-2.992-2.773-5.003-2.476c-2.021,0.298-3.646,1.815-4.081,3.813C-6.349,79.684,31.726,128.41,72.809,148.913
	c0.69,0.343,1.439,0.517,2.191,0.517s1.501-0.173,2.191-0.517C118.271,128.41,156.349,79.687,140.005,4.437z M75,139.015
	C40.032,120.561,8.276,79.586,17.618,17.214c5.762,6.024,14.938,12.731,27.237,12.731c14.811,0,24.722-9.804,29.866-16.184
	c5.268,6.55,15.527,16.184,30.269,16.184c12.335,0,21.586-6.753,27.388-12.793C141.744,79.563,109.978,120.558,75,139.015z
	 M71.53,38.833L35.967,74.396c-1.916,1.913-1.916,5.02,0,6.936c0.958,0.958,2.214,1.436,3.47,1.436s2.511-0.477,3.47-1.436
	L78.47,45.769c1.916-1.913,1.916-5.023,0-6.936C76.553,36.92,73.447,36.92,71.53,38.833z M71.53,64.451L53.747,82.235
	c-1.916,1.916-1.916,5.02,0,6.936c0.958,0.958,2.214,1.436,3.47,1.436s2.511-0.477,3.47-1.436L78.47,71.388
	c1.916-1.913,1.916-5.023,0-6.936C76.553,62.538,73.447,62.538,71.53,64.451z"/>
</svg>
