<?xml version="1.0" encoding="utf-8"?>
<!-- Generator: Adobe Illustrator 17.0.0, SVG Export Plug-In . SVG Version: 6.00 Build 0)  -->
<!DOCTYPE svg PUBLIC "-//W3C//DTD SVG 1.1//EN" "http://www.w3.org/Graphics/SVG/1.1/DTD/svg11.dtd">
<svg version="1.1" id="Layer_1" xmlns="http://www.w3.org/2000/svg" xmlns:xlink="http://www.w3.org/1999/xlink" x="0px" y="0px"
	 width="150px" height="150px" viewBox="0 0 150 150" enable-background="new 0 0 150 150" xml:space="preserve">
<rect fill="#D35400" width="150" height="150"/>
<path fill="#FFFFFF" d="M75.113,99.545c5.845,0,19.959-9.764,24.358-18.099s6.442-35.954,6.442-35.954
	c0-16.227-13.79-29.492-30.8-29.492h-0.226c-17.01,0-30.8,13.265-30.8,29.492c0,0,2.043,27.564,6.442,35.899
	s18.513,18.127,24.358,18.127L75.113,99.545z"/>
<path fill="#FFFFFF" d="M103.821,107.543c0,0,16.168-1.347,25.792,6.352s7.856,36.057,7.856,36.057L13.197,150
	c0,0-1.768-28.31,7.856-36.009s25.792-6.448,25.792-6.448s9.095,14.532,28.487,14.532S103.821,107.543,103.821,107.543z"/>
</svg>
